<mxfile host="app.diagrams.net" modified="2024-06-19T11:45:55.692Z" agent="Mozilla/5.0 (Windows NT 10.0; Win64; x64) AppleWebKit/537.36 (KHTML, like Gecko) Chrome/125.0.0.0 Safari/537.36" etag="tcP0gTCQUO3mZ50MVXEv" version="24.5.5" type="google">
  <diagram name="Page-1" id="CBuR2NEDtOzpSzhoBUt1">
    <mxGraphModel dx="1257" dy="609" grid="1" gridSize="10" guides="1" tooltips="1" connect="1" arrows="1" fold="1" page="0" pageScale="1" pageWidth="850" pageHeight="1100" math="0" shadow="0">
      <root>
        <mxCell id="0" />
        <mxCell id="1" parent="0" />
        <mxCell id="hGc7lbxoC25RZhSGfh4u-5" style="edgeStyle=orthogonalEdgeStyle;rounded=0;orthogonalLoop=1;jettySize=auto;html=1;exitX=0.5;exitY=1;exitDx=0;exitDy=0;" edge="1" parent="1" source="hGc7lbxoC25RZhSGfh4u-1" target="hGc7lbxoC25RZhSGfh4u-6">
          <mxGeometry relative="1" as="geometry">
            <mxPoint x="295" y="330" as="targetPoint" />
          </mxGeometry>
        </mxCell>
        <mxCell id="hGc7lbxoC25RZhSGfh4u-1" value="START" style="ellipse;whiteSpace=wrap;html=1;" vertex="1" parent="1">
          <mxGeometry x="220" y="210" width="150" height="80" as="geometry" />
        </mxCell>
        <mxCell id="hGc7lbxoC25RZhSGfh4u-7" style="edgeStyle=orthogonalEdgeStyle;rounded=0;orthogonalLoop=1;jettySize=auto;html=1;" edge="1" parent="1" source="hGc7lbxoC25RZhSGfh4u-6" target="hGc7lbxoC25RZhSGfh4u-8">
          <mxGeometry relative="1" as="geometry">
            <mxPoint x="440" y="330" as="targetPoint" />
          </mxGeometry>
        </mxCell>
        <mxCell id="hGc7lbxoC25RZhSGfh4u-6" value="Tela de Menu" style="rounded=1;whiteSpace=wrap;html=1;" vertex="1" parent="1">
          <mxGeometry x="235" y="330" width="120" height="40" as="geometry" />
        </mxCell>
        <mxCell id="hGc7lbxoC25RZhSGfh4u-10" style="edgeStyle=orthogonalEdgeStyle;rounded=0;orthogonalLoop=1;jettySize=auto;html=1;exitX=0.5;exitY=0;exitDx=0;exitDy=0;entryX=0.5;entryY=0;entryDx=0;entryDy=0;" edge="1" parent="1" source="hGc7lbxoC25RZhSGfh4u-8" target="hGc7lbxoC25RZhSGfh4u-18">
          <mxGeometry relative="1" as="geometry">
            <mxPoint x="620" y="280" as="targetPoint" />
          </mxGeometry>
        </mxCell>
        <mxCell id="hGc7lbxoC25RZhSGfh4u-29" value="round robin" style="edgeLabel;html=1;align=center;verticalAlign=middle;resizable=0;points=[];" vertex="1" connectable="0" parent="hGc7lbxoC25RZhSGfh4u-10">
          <mxGeometry x="0.0261" relative="1" as="geometry">
            <mxPoint as="offset" />
          </mxGeometry>
        </mxCell>
        <mxCell id="hGc7lbxoC25RZhSGfh4u-12" style="edgeStyle=orthogonalEdgeStyle;rounded=0;orthogonalLoop=1;jettySize=auto;html=1;exitX=0.5;exitY=1;exitDx=0;exitDy=0;entryX=0.5;entryY=1;entryDx=0;entryDy=0;" edge="1" parent="1" source="hGc7lbxoC25RZhSGfh4u-8" target="hGc7lbxoC25RZhSGfh4u-18">
          <mxGeometry relative="1" as="geometry">
            <mxPoint x="520" y="400" as="targetPoint" />
          </mxGeometry>
        </mxCell>
        <mxCell id="hGc7lbxoC25RZhSGfh4u-30" value="por prioridade" style="edgeLabel;html=1;align=center;verticalAlign=middle;resizable=0;points=[];" vertex="1" connectable="0" parent="hGc7lbxoC25RZhSGfh4u-12">
          <mxGeometry x="0.0174" y="3" relative="1" as="geometry">
            <mxPoint as="offset" />
          </mxGeometry>
        </mxCell>
        <mxCell id="hGc7lbxoC25RZhSGfh4u-8" value="escolher algoritmo" style="rhombus;whiteSpace=wrap;html=1;" vertex="1" parent="1">
          <mxGeometry x="400" y="290" width="80" height="80" as="geometry" />
        </mxCell>
        <mxCell id="hGc7lbxoC25RZhSGfh4u-19" style="edgeStyle=orthogonalEdgeStyle;rounded=0;orthogonalLoop=1;jettySize=auto;html=1;exitX=0.75;exitY=0;exitDx=0;exitDy=0;entryX=0.5;entryY=0;entryDx=0;entryDy=0;" edge="1" parent="1" source="hGc7lbxoC25RZhSGfh4u-18" target="hGc7lbxoC25RZhSGfh4u-20">
          <mxGeometry relative="1" as="geometry">
            <mxPoint x="780" y="280" as="targetPoint" />
          </mxGeometry>
        </mxCell>
        <mxCell id="hGc7lbxoC25RZhSGfh4u-33" value="Round Robin" style="edgeLabel;html=1;align=center;verticalAlign=middle;resizable=0;points=[];" vertex="1" connectable="0" parent="hGc7lbxoC25RZhSGfh4u-19">
          <mxGeometry x="0.0778" y="4" relative="1" as="geometry">
            <mxPoint as="offset" />
          </mxGeometry>
        </mxCell>
        <mxCell id="hGc7lbxoC25RZhSGfh4u-21" style="edgeStyle=orthogonalEdgeStyle;rounded=0;orthogonalLoop=1;jettySize=auto;html=1;exitX=0.75;exitY=1;exitDx=0;exitDy=0;entryX=0.5;entryY=1;entryDx=0;entryDy=0;" edge="1" parent="1" source="hGc7lbxoC25RZhSGfh4u-18" target="hGc7lbxoC25RZhSGfh4u-20">
          <mxGeometry relative="1" as="geometry" />
        </mxCell>
        <mxCell id="hGc7lbxoC25RZhSGfh4u-34" value="Por Prioridade" style="edgeLabel;html=1;align=center;verticalAlign=middle;resizable=0;points=[];" vertex="1" connectable="0" parent="hGc7lbxoC25RZhSGfh4u-21">
          <mxGeometry x="-0.0333" y="1" relative="1" as="geometry">
            <mxPoint as="offset" />
          </mxGeometry>
        </mxCell>
        <mxCell id="hGc7lbxoC25RZhSGfh4u-18" value="visualizar processo" style="rounded=1;whiteSpace=wrap;html=1;" vertex="1" parent="1">
          <mxGeometry x="560" y="300" width="120" height="60" as="geometry" />
        </mxCell>
        <mxCell id="hGc7lbxoC25RZhSGfh4u-22" style="edgeStyle=orthogonalEdgeStyle;rounded=0;orthogonalLoop=1;jettySize=auto;html=1;exitX=1;exitY=0.5;exitDx=0;exitDy=0;" edge="1" parent="1" source="hGc7lbxoC25RZhSGfh4u-20" target="hGc7lbxoC25RZhSGfh4u-23">
          <mxGeometry relative="1" as="geometry">
            <mxPoint x="960" y="420" as="targetPoint" />
          </mxGeometry>
        </mxCell>
        <mxCell id="hGc7lbxoC25RZhSGfh4u-20" value="resultado de processo" style="rounded=1;whiteSpace=wrap;html=1;" vertex="1" parent="1">
          <mxGeometry x="730" y="300" width="120" height="60" as="geometry" />
        </mxCell>
        <mxCell id="hGc7lbxoC25RZhSGfh4u-24" style="edgeStyle=orthogonalEdgeStyle;rounded=0;orthogonalLoop=1;jettySize=auto;html=1;entryX=0.5;entryY=1;entryDx=0;entryDy=0;" edge="1" parent="1" source="hGc7lbxoC25RZhSGfh4u-23" target="hGc7lbxoC25RZhSGfh4u-6">
          <mxGeometry relative="1" as="geometry" />
        </mxCell>
        <mxCell id="hGc7lbxoC25RZhSGfh4u-31" value="voltar" style="edgeLabel;html=1;align=center;verticalAlign=middle;resizable=0;points=[];" vertex="1" connectable="0" parent="hGc7lbxoC25RZhSGfh4u-24">
          <mxGeometry x="-0.5035" y="-2" relative="1" as="geometry">
            <mxPoint as="offset" />
          </mxGeometry>
        </mxCell>
        <mxCell id="hGc7lbxoC25RZhSGfh4u-25" style="edgeStyle=orthogonalEdgeStyle;rounded=0;orthogonalLoop=1;jettySize=auto;html=1;exitX=0.5;exitY=1;exitDx=0;exitDy=0;" edge="1" parent="1" source="hGc7lbxoC25RZhSGfh4u-23" target="hGc7lbxoC25RZhSGfh4u-28">
          <mxGeometry relative="1" as="geometry">
            <mxPoint x="290" y="530" as="targetPoint" />
          </mxGeometry>
        </mxCell>
        <mxCell id="hGc7lbxoC25RZhSGfh4u-32" value="sair" style="edgeLabel;html=1;align=center;verticalAlign=middle;resizable=0;points=[];" vertex="1" connectable="0" parent="hGc7lbxoC25RZhSGfh4u-25">
          <mxGeometry x="-0.3629" y="1" relative="1" as="geometry">
            <mxPoint as="offset" />
          </mxGeometry>
        </mxCell>
        <mxCell id="hGc7lbxoC25RZhSGfh4u-23" value="voltar ou sair&amp;nbsp;" style="rhombus;whiteSpace=wrap;html=1;" vertex="1" parent="1">
          <mxGeometry x="920" y="410" width="80" height="80" as="geometry" />
        </mxCell>
        <mxCell id="hGc7lbxoC25RZhSGfh4u-28" value="ENCERRAR" style="ellipse;whiteSpace=wrap;html=1;" vertex="1" parent="1">
          <mxGeometry x="240" y="530" width="120" height="80" as="geometry" />
        </mxCell>
      </root>
    </mxGraphModel>
  </diagram>
</mxfile>
